<?xml version="1.0" encoding="iso-8859-1"?>
<!-- Uploaded to: SVG Repo, www.svgrepo.com, Generator: SVG Repo Mixer Tools -->
<svg height="800px" width="800px" version="1.1" id="Layer_1" xmlns="http://www.w3.org/2000/svg" xmlns:xlink="http://www.w3.org/1999/xlink" 
	 viewBox="0 0 512.001 512.001" xml:space="preserve">
<path style="fill:#A52000;" d="M416.014,106.958l18.445-28.505c3.291-5.088,3.537-11.567,0.642-16.889s-8.47-8.636-14.529-8.636
	h-79.391c-9.134,0-16.54,7.405-16.54,16.54v74.981c0,9.134,7.405,16.54,16.54,16.54h79.391c6.059,0,11.633-3.313,14.529-8.636
	c2.896-5.323,2.649-11.803-0.642-16.889L416.014,106.958z"/>
<path style="fill:#C52600;" d="M341.181,20.95h-103.65c-9.134,0-16.54,7.405-16.54,16.54v74.981c0,9.134,7.405,16.54,16.54,16.54
	h103.65c9.134,0,16.54-7.405,16.54-16.54V37.49C357.721,28.356,350.315,20.95,341.181,20.95z"/>
<path style="fill:#3E3D41;" d="M237.347,0c-9.134,0-16.54,7.405-16.54,16.54V207.3c0,9.134,7.405,16.54,16.54,16.54
	c9.134,0,16.54-7.405,16.54-16.54V16.54C253.887,7.405,246.481,0,237.347,0z"/>
<path style="fill:#224E7D;" d="M237.347,187.085c-89.58,0-162.458,72.878-162.458,162.458S147.767,512,237.347,512
	s162.458-72.878,162.458-162.458S326.927,187.085,237.347,187.085z"/>
<g>
	<path style="fill:#1A3D61;" d="M237.347,222.277c83.634,0,152.701,63.528,161.502,144.863c0.625-5.782,0.956-11.651,0.956-17.596
		c0-89.58-72.878-162.458-162.458-162.458S74.889,259.964,74.889,349.543c0,5.946,0.331,11.814,0.956,17.596
		C84.645,285.804,153.713,222.277,237.347,222.277z"/>
	<path style="fill:#1A3D61;" d="M237.347,187.085L237.347,187.085v324.917l0,0c89.58,0,162.458-72.878,162.458-162.458
		C399.805,259.962,326.927,187.085,237.347,187.085z"/>
</g>
</svg>